<mxfile host="app.diagrams.net" modified="2020-10-11T17:24:59.892Z" agent="5.0 (Windows)" etag="su2P6dch57L5kSamNCZd" version="13.7.9" type="github">
  <diagram id="QLvcNtkyFLMQ6eaHcRJF" name="Page-1">
    <mxGraphModel dx="2577" dy="986" grid="1" gridSize="10" guides="1" tooltips="1" connect="1" arrows="1" fold="1" page="1" pageScale="1" pageWidth="850" pageHeight="1100" math="0" shadow="0">
      <root>
        <mxCell id="0" />
        <mxCell id="1" parent="0" />
        <mxCell id="N01aK8XhvqNWcXPDAk_N-31" value="" style="text;html=1;fillColor=none;align=center;verticalAlign=middle;whiteSpace=wrap;rounded=0;strokeColor=#000000;dashed=1;strokeWidth=2;" vertex="1" parent="1">
          <mxGeometry x="-800" y="575" width="760" height="460" as="geometry" />
        </mxCell>
        <mxCell id="N01aK8XhvqNWcXPDAk_N-32" value="" style="text;html=1;fillColor=none;align=center;verticalAlign=middle;whiteSpace=wrap;rounded=0;strokeColor=#000000;dashed=1;strokeWidth=2;" vertex="1" parent="1">
          <mxGeometry x="40" y="580" width="760" height="450" as="geometry" />
        </mxCell>
        <mxCell id="N01aK8XhvqNWcXPDAk_N-24" value="&lt;font style=&quot;font-size: 22px&quot;&gt;Rasberry Pi 4 State Descriptions&lt;br&gt;&lt;/font&gt;" style="text;html=1;strokeColor=none;fillColor=none;align=center;verticalAlign=middle;whiteSpace=wrap;rounded=0;fontSize=18;" vertex="1" parent="1">
          <mxGeometry x="320" width="210" height="80" as="geometry" />
        </mxCell>
        <mxCell id="N01aK8XhvqNWcXPDAk_N-28" value="Application" style="text;html=1;strokeColor=none;fillColor=none;align=center;verticalAlign=middle;whiteSpace=wrap;rounded=0;fontSize=35;" vertex="1" parent="1">
          <mxGeometry x="-530" y="500" width="210" height="80" as="geometry" />
        </mxCell>
        <mxCell id="N01aK8XhvqNWcXPDAk_N-33" value="Microcontroller" style="text;html=1;strokeColor=none;fillColor=none;align=center;verticalAlign=middle;whiteSpace=wrap;rounded=0;fontSize=35;" vertex="1" parent="1">
          <mxGeometry x="310" y="500" width="260" height="80" as="geometry" />
        </mxCell>
        <mxCell id="N01aK8XhvqNWcXPDAk_N-52" value="" style="group" vertex="1" connectable="0" parent="1">
          <mxGeometry y="80" width="270" height="260" as="geometry" />
        </mxCell>
        <mxCell id="N01aK8XhvqNWcXPDAk_N-2" value="" style="rounded=0;whiteSpace=wrap;html=1;fontSize=14;" vertex="1" parent="N01aK8XhvqNWcXPDAk_N-52">
          <mxGeometry width="270" height="260" as="geometry" />
        </mxCell>
        <mxCell id="N01aK8XhvqNWcXPDAk_N-7" value="Collect Data" style="text;html=1;strokeColor=none;fillColor=none;align=center;verticalAlign=middle;whiteSpace=wrap;rounded=0;fontSize=18;" vertex="1" parent="N01aK8XhvqNWcXPDAk_N-52">
          <mxGeometry y="20" width="270" height="40" as="geometry" />
        </mxCell>
        <mxCell id="N01aK8XhvqNWcXPDAk_N-11" value="Collect sensor data" style="text;html=1;strokeColor=none;fillColor=none;align=left;verticalAlign=middle;whiteSpace=wrap;rounded=0;fontSize=14;" vertex="1" parent="N01aK8XhvqNWcXPDAk_N-52">
          <mxGeometry x="10" y="85" width="140" height="25" as="geometry" />
        </mxCell>
        <mxCell id="N01aK8XhvqNWcXPDAk_N-12" value="Determine whether to engage watering acuator" style="text;html=1;strokeColor=none;fillColor=none;align=left;verticalAlign=middle;whiteSpace=wrap;rounded=0;fontSize=14;" vertex="1" parent="N01aK8XhvqNWcXPDAk_N-52">
          <mxGeometry x="10" y="110" width="140" height="60" as="geometry" />
        </mxCell>
        <mxCell id="N01aK8XhvqNWcXPDAk_N-13" value="Functions:" style="text;html=1;strokeColor=none;fillColor=none;align=center;verticalAlign=middle;whiteSpace=wrap;rounded=0;fontSize=18;" vertex="1" parent="N01aK8XhvqNWcXPDAk_N-52">
          <mxGeometry y="47.5" width="110" height="40" as="geometry" />
        </mxCell>
        <mxCell id="N01aK8XhvqNWcXPDAk_N-19" value="Triggers on:" style="text;html=1;strokeColor=none;fillColor=none;align=center;verticalAlign=middle;whiteSpace=wrap;rounded=0;fontSize=18;" vertex="1" parent="N01aK8XhvqNWcXPDAk_N-52">
          <mxGeometry x="150" y="50" width="120" height="40" as="geometry" />
        </mxCell>
        <mxCell id="N01aK8XhvqNWcXPDAk_N-20" value="Timer" style="text;html=1;strokeColor=none;fillColor=none;align=left;verticalAlign=middle;whiteSpace=wrap;rounded=0;fontSize=14;" vertex="1" parent="N01aK8XhvqNWcXPDAk_N-52">
          <mxGeometry x="170" y="85" width="100" height="25" as="geometry" />
        </mxCell>
        <mxCell id="N01aK8XhvqNWcXPDAk_N-21" value="Transmit Data to main microcontroller" style="text;html=1;strokeColor=none;fillColor=none;align=left;verticalAlign=middle;whiteSpace=wrap;rounded=0;fontSize=14;" vertex="1" parent="N01aK8XhvqNWcXPDAk_N-52">
          <mxGeometry x="10" y="170" width="140" height="40" as="geometry" />
        </mxCell>
        <mxCell id="N01aK8XhvqNWcXPDAk_N-62" value="" style="group" vertex="1" connectable="0" parent="1">
          <mxGeometry x="-290" y="80" width="270" height="260" as="geometry" />
        </mxCell>
        <mxCell id="N01aK8XhvqNWcXPDAk_N-63" value="" style="rounded=0;whiteSpace=wrap;html=1;fontSize=14;" vertex="1" parent="N01aK8XhvqNWcXPDAk_N-62">
          <mxGeometry width="270" height="260" as="geometry" />
        </mxCell>
        <mxCell id="N01aK8XhvqNWcXPDAk_N-64" value="Serve Application" style="text;html=1;strokeColor=none;fillColor=none;align=center;verticalAlign=middle;whiteSpace=wrap;rounded=0;fontSize=18;" vertex="1" parent="N01aK8XhvqNWcXPDAk_N-62">
          <mxGeometry y="20" width="270" height="40" as="geometry" />
        </mxCell>
        <mxCell id="N01aK8XhvqNWcXPDAk_N-65" value="Collect sensor data" style="text;html=1;strokeColor=none;fillColor=none;align=left;verticalAlign=middle;whiteSpace=wrap;rounded=0;fontSize=14;" vertex="1" parent="N01aK8XhvqNWcXPDAk_N-62">
          <mxGeometry x="10" y="85" width="140" height="25" as="geometry" />
        </mxCell>
        <mxCell id="N01aK8XhvqNWcXPDAk_N-66" value="Determine whether to engage watering acuator" style="text;html=1;strokeColor=none;fillColor=none;align=left;verticalAlign=middle;whiteSpace=wrap;rounded=0;fontSize=14;" vertex="1" parent="N01aK8XhvqNWcXPDAk_N-62">
          <mxGeometry x="10" y="110" width="140" height="60" as="geometry" />
        </mxCell>
        <mxCell id="N01aK8XhvqNWcXPDAk_N-67" value="Functions:" style="text;html=1;strokeColor=none;fillColor=none;align=center;verticalAlign=middle;whiteSpace=wrap;rounded=0;fontSize=18;" vertex="1" parent="N01aK8XhvqNWcXPDAk_N-62">
          <mxGeometry y="47.5" width="110" height="40" as="geometry" />
        </mxCell>
        <mxCell id="N01aK8XhvqNWcXPDAk_N-68" value="Triggers on:" style="text;html=1;strokeColor=none;fillColor=none;align=center;verticalAlign=middle;whiteSpace=wrap;rounded=0;fontSize=18;" vertex="1" parent="N01aK8XhvqNWcXPDAk_N-62">
          <mxGeometry x="150" y="50" width="120" height="40" as="geometry" />
        </mxCell>
        <mxCell id="N01aK8XhvqNWcXPDAk_N-69" value="Timer" style="text;html=1;strokeColor=none;fillColor=none;align=left;verticalAlign=middle;whiteSpace=wrap;rounded=0;fontSize=14;" vertex="1" parent="N01aK8XhvqNWcXPDAk_N-62">
          <mxGeometry x="170" y="85" width="100" height="25" as="geometry" />
        </mxCell>
        <mxCell id="N01aK8XhvqNWcXPDAk_N-70" value="Transmit Data to main microcontroller" style="text;html=1;strokeColor=none;fillColor=none;align=left;verticalAlign=middle;whiteSpace=wrap;rounded=0;fontSize=14;" vertex="1" parent="N01aK8XhvqNWcXPDAk_N-62">
          <mxGeometry x="10" y="170" width="140" height="40" as="geometry" />
        </mxCell>
        <mxCell id="N01aK8XhvqNWcXPDAk_N-71" value="" style="group" vertex="1" connectable="0" parent="1">
          <mxGeometry x="290" y="80" width="270" height="260" as="geometry" />
        </mxCell>
        <mxCell id="N01aK8XhvqNWcXPDAk_N-3" value="" style="rounded=0;whiteSpace=wrap;html=1;fontSize=14;" vertex="1" parent="N01aK8XhvqNWcXPDAk_N-71">
          <mxGeometry width="270" height="260" as="geometry" />
        </mxCell>
        <mxCell id="N01aK8XhvqNWcXPDAk_N-4" value="Idle " style="text;html=1;strokeColor=none;fillColor=none;align=center;verticalAlign=middle;whiteSpace=wrap;rounded=0;fontSize=18;" vertex="1" parent="N01aK8XhvqNWcXPDAk_N-71">
          <mxGeometry y="20" width="270" height="40" as="geometry" />
        </mxCell>
        <mxCell id="N01aK8XhvqNWcXPDAk_N-5" value="Await wifi/bluetooth input/" style="text;html=1;strokeColor=none;fillColor=none;align=left;verticalAlign=middle;whiteSpace=wrap;rounded=0;fontSize=14;" vertex="1" parent="N01aK8XhvqNWcXPDAk_N-71">
          <mxGeometry x="10" y="120" width="120" height="40" as="geometry" />
        </mxCell>
        <mxCell id="N01aK8XhvqNWcXPDAk_N-6" value="&lt;div align=&quot;left&quot;&gt;&lt;font style=&quot;font-size: 14px&quot;&gt;Power save while waiting for event trigger&lt;br&gt;&lt;/font&gt;&lt;/div&gt;" style="text;html=1;strokeColor=none;fillColor=none;align=left;verticalAlign=middle;whiteSpace=wrap;rounded=0;fontSize=14;" vertex="1" parent="N01aK8XhvqNWcXPDAk_N-71">
          <mxGeometry x="10" y="170" width="140" height="40" as="geometry" />
        </mxCell>
        <mxCell id="N01aK8XhvqNWcXPDAk_N-8" value="Functions:" style="text;html=1;strokeColor=none;fillColor=none;align=center;verticalAlign=middle;whiteSpace=wrap;rounded=0;fontSize=18;" vertex="1" parent="N01aK8XhvqNWcXPDAk_N-71">
          <mxGeometry y="50" width="110" height="40" as="geometry" />
        </mxCell>
        <mxCell id="N01aK8XhvqNWcXPDAk_N-15" value="&lt;div&gt;Drive attachments: Bubbler/Atomizer&lt;br&gt;&lt;/div&gt;" style="text;html=1;strokeColor=none;fillColor=none;align=left;verticalAlign=middle;whiteSpace=wrap;rounded=0;fontSize=14;" vertex="1" parent="N01aK8XhvqNWcXPDAk_N-71">
          <mxGeometry x="10" y="85" width="140" height="25" as="geometry" />
        </mxCell>
        <mxCell id="N01aK8XhvqNWcXPDAk_N-17" value="Triggers on:" style="text;html=1;strokeColor=none;fillColor=none;align=center;verticalAlign=middle;whiteSpace=wrap;rounded=0;fontSize=18;" vertex="1" parent="N01aK8XhvqNWcXPDAk_N-71">
          <mxGeometry x="150" y="50" width="120" height="40" as="geometry" />
        </mxCell>
        <mxCell id="N01aK8XhvqNWcXPDAk_N-18" value="None" style="text;html=1;strokeColor=none;fillColor=none;align=left;verticalAlign=middle;whiteSpace=wrap;rounded=0;fontSize=14;" vertex="1" parent="N01aK8XhvqNWcXPDAk_N-71">
          <mxGeometry x="160" y="85" width="110" height="25" as="geometry" />
        </mxCell>
        <mxCell id="N01aK8XhvqNWcXPDAk_N-72" value="" style="group" vertex="1" connectable="0" parent="1">
          <mxGeometry x="580" y="80" width="270" height="260" as="geometry" />
        </mxCell>
        <mxCell id="N01aK8XhvqNWcXPDAk_N-1" value="" style="rounded=0;whiteSpace=wrap;html=1;fontSize=14;" vertex="1" parent="N01aK8XhvqNWcXPDAk_N-72">
          <mxGeometry width="270" height="260" as="geometry" />
        </mxCell>
        <mxCell id="N01aK8XhvqNWcXPDAk_N-9" value="Update database" style="text;html=1;strokeColor=none;fillColor=none;align=left;verticalAlign=middle;whiteSpace=wrap;rounded=0;fontSize=14;" vertex="1" parent="N01aK8XhvqNWcXPDAk_N-72">
          <mxGeometry x="10" y="90" width="130" height="40" as="geometry" />
        </mxCell>
        <mxCell id="N01aK8XhvqNWcXPDAk_N-10" value="Functions:" style="text;html=1;strokeColor=none;fillColor=none;align=center;verticalAlign=middle;whiteSpace=wrap;rounded=0;fontSize=18;" vertex="1" parent="N01aK8XhvqNWcXPDAk_N-72">
          <mxGeometry y="50" width="110" height="40" as="geometry" />
        </mxCell>
        <mxCell id="N01aK8XhvqNWcXPDAk_N-14" value="Message Recieve" style="text;html=1;strokeColor=none;fillColor=none;align=center;verticalAlign=middle;whiteSpace=wrap;rounded=0;fontSize=18;" vertex="1" parent="N01aK8XhvqNWcXPDAk_N-72">
          <mxGeometry y="20" width="270" height="40" as="geometry" />
        </mxCell>
        <mxCell id="N01aK8XhvqNWcXPDAk_N-16" value="Update application values" style="text;html=1;strokeColor=none;fillColor=none;align=left;verticalAlign=middle;whiteSpace=wrap;rounded=0;fontSize=14;" vertex="1" parent="N01aK8XhvqNWcXPDAk_N-72">
          <mxGeometry x="10" y="130" width="130" height="60" as="geometry" />
        </mxCell>
        <mxCell id="N01aK8XhvqNWcXPDAk_N-22" value="Triggers on:" style="text;html=1;strokeColor=none;fillColor=none;align=center;verticalAlign=middle;whiteSpace=wrap;rounded=0;fontSize=18;" vertex="1" parent="N01aK8XhvqNWcXPDAk_N-72">
          <mxGeometry x="150" y="50" width="120" height="40" as="geometry" />
        </mxCell>
        <mxCell id="N01aK8XhvqNWcXPDAk_N-23" value="UART msg" style="text;html=1;strokeColor=none;fillColor=none;align=left;verticalAlign=middle;whiteSpace=wrap;rounded=0;fontSize=14;" vertex="1" parent="N01aK8XhvqNWcXPDAk_N-72">
          <mxGeometry x="170" y="85" width="100" height="45" as="geometry" />
        </mxCell>
        <mxCell id="N01aK8XhvqNWcXPDAk_N-25" value="Possibly override watering actuator trigger?" style="text;html=1;strokeColor=none;fillColor=none;align=left;verticalAlign=middle;whiteSpace=wrap;rounded=0;fontSize=14;" vertex="1" parent="N01aK8XhvqNWcXPDAk_N-72">
          <mxGeometry x="10" y="190" width="130" height="60" as="geometry" />
        </mxCell>
        <mxCell id="N01aK8XhvqNWcXPDAk_N-26" value="Bluetooth msg" style="text;html=1;strokeColor=none;fillColor=none;align=left;verticalAlign=middle;whiteSpace=wrap;rounded=0;fontSize=14;" vertex="1" parent="N01aK8XhvqNWcXPDAk_N-72">
          <mxGeometry x="170" y="125" width="100" height="45" as="geometry" />
        </mxCell>
        <mxCell id="N01aK8XhvqNWcXPDAk_N-74" value="" style="group" vertex="1" connectable="0" parent="1">
          <mxGeometry x="870" y="80" width="270" height="260" as="geometry" />
        </mxCell>
        <mxCell id="N01aK8XhvqNWcXPDAk_N-53" value="" style="group" vertex="1" connectable="0" parent="N01aK8XhvqNWcXPDAk_N-74">
          <mxGeometry width="270" height="260" as="geometry" />
        </mxCell>
        <mxCell id="N01aK8XhvqNWcXPDAk_N-54" value="" style="rounded=0;whiteSpace=wrap;html=1;fontSize=14;" vertex="1" parent="N01aK8XhvqNWcXPDAk_N-53">
          <mxGeometry width="270" height="260" as="geometry" />
        </mxCell>
        <mxCell id="N01aK8XhvqNWcXPDAk_N-55" value="Drive control device" style="text;html=1;strokeColor=none;fillColor=none;align=center;verticalAlign=middle;whiteSpace=wrap;rounded=0;fontSize=18;" vertex="1" parent="N01aK8XhvqNWcXPDAk_N-53">
          <mxGeometry y="20" width="270" height="40" as="geometry" />
        </mxCell>
        <mxCell id="N01aK8XhvqNWcXPDAk_N-56" value="Determine stop conditions for control device and set up interrupt for it" style="text;html=1;strokeColor=none;fillColor=none;align=left;verticalAlign=middle;whiteSpace=wrap;rounded=0;fontSize=14;" vertex="1" parent="N01aK8XhvqNWcXPDAk_N-53">
          <mxGeometry x="10" y="85" width="140" height="75" as="geometry" />
        </mxCell>
        <mxCell id="N01aK8XhvqNWcXPDAk_N-58" value="Functions:" style="text;html=1;strokeColor=none;fillColor=none;align=center;verticalAlign=middle;whiteSpace=wrap;rounded=0;fontSize=18;" vertex="1" parent="N01aK8XhvqNWcXPDAk_N-53">
          <mxGeometry y="47.5" width="110" height="40" as="geometry" />
        </mxCell>
        <mxCell id="N01aK8XhvqNWcXPDAk_N-59" value="Triggers on:" style="text;html=1;strokeColor=none;fillColor=none;align=center;verticalAlign=middle;whiteSpace=wrap;rounded=0;fontSize=18;" vertex="1" parent="N01aK8XhvqNWcXPDAk_N-53">
          <mxGeometry x="150" y="50" width="120" height="40" as="geometry" />
        </mxCell>
        <mxCell id="N01aK8XhvqNWcXPDAk_N-60" value="Timer" style="text;html=1;strokeColor=none;fillColor=none;align=left;verticalAlign=middle;whiteSpace=wrap;rounded=0;fontSize=14;" vertex="1" parent="N01aK8XhvqNWcXPDAk_N-53">
          <mxGeometry x="170" y="85" width="100" height="25" as="geometry" />
        </mxCell>
        <mxCell id="N01aK8XhvqNWcXPDAk_N-61" value="Determine if device can still run? (i.e. still have nutrients?)" style="text;html=1;strokeColor=none;fillColor=none;align=left;verticalAlign=middle;whiteSpace=wrap;rounded=0;fontSize=14;" vertex="1" parent="N01aK8XhvqNWcXPDAk_N-53">
          <mxGeometry x="10" y="160" width="140" height="60" as="geometry" />
        </mxCell>
        <mxCell id="N01aK8XhvqNWcXPDAk_N-73" value="User input" style="text;html=1;strokeColor=none;fillColor=none;align=left;verticalAlign=middle;whiteSpace=wrap;rounded=0;fontSize=14;" vertex="1" parent="N01aK8XhvqNWcXPDAk_N-53">
          <mxGeometry x="170" y="117.5" width="100" height="25" as="geometry" />
        </mxCell>
        <mxCell id="N01aK8XhvqNWcXPDAk_N-100" value="Sensor Information" style="text;html=1;strokeColor=none;fillColor=none;align=left;verticalAlign=middle;whiteSpace=wrap;rounded=0;fontSize=14;" vertex="1" parent="N01aK8XhvqNWcXPDAk_N-53">
          <mxGeometry x="170" y="160" width="100" height="25" as="geometry" />
        </mxCell>
        <mxCell id="N01aK8XhvqNWcXPDAk_N-88" value="main" style="rounded=1;whiteSpace=wrap;html=1;strokeColor=#000000;strokeWidth=2;fontSize=13;" vertex="1" parent="1">
          <mxGeometry x="345" y="710" width="160" height="130" as="geometry" />
        </mxCell>
        <mxCell id="N01aK8XhvqNWcXPDAk_N-102" style="edgeStyle=orthogonalEdgeStyle;rounded=0;orthogonalLoop=1;jettySize=auto;html=1;entryX=0.25;entryY=0;entryDx=0;entryDy=0;fontSize=13;" edge="1" parent="1" source="N01aK8XhvqNWcXPDAk_N-89" target="N01aK8XhvqNWcXPDAk_N-32">
          <mxGeometry relative="1" as="geometry" />
        </mxCell>
        <mxCell id="N01aK8XhvqNWcXPDAk_N-89" value="UART Data" style="shape=parallelogram;perimeter=parallelogramPerimeter;whiteSpace=wrap;html=1;fixedSize=1;strokeColor=#000000;strokeWidth=2;fontSize=13;" vertex="1" parent="1">
          <mxGeometry x="170" y="470" width="120" height="60" as="geometry" />
        </mxCell>
        <mxCell id="N01aK8XhvqNWcXPDAk_N-105" value="Request" style="rounded=0;whiteSpace=wrap;html=1;strokeColor=#000000;strokeWidth=2;fontSize=13;" vertex="1" parent="1">
          <mxGeometry x="-200" y="690" width="120" height="60" as="geometry" />
        </mxCell>
      </root>
    </mxGraphModel>
  </diagram>
</mxfile>
